<svg xmlns:inkscape="http://www.inkscape.org/namespaces/inkscape" xmlns:sodipodi="http://sodipodi.sourceforge.net/DTD/sodipodi-0.dtd" xmlns="http://www.w3.org/2000/svg" xmlns:svg="http://www.w3.org/2000/svg" version="1.1" id="Calque_2" x="0px" y="0px" viewBox="0 0 346.20001 129.8" xml:space="preserve" sodipodi:docname="logo_marsimperium_horizontal_monochrome.svg" width="346" height="130" inkscape:version="1.3.2 (091e20ef0f, 2023-11-25)"><defs id="defs1"/>
<style type="text/css" id="style1">
	.st0{fill:#006B8F;}
</style>
<path class="st0" d="M 50,89.2 51.9,87.3 56.3,83 34.3,95.5 51,66.1 40.7,55.8 0.3,86.9 l 9.3,9.3 23.3,-18.8 -15.3,26.7 8,8 26.7,-15.3 -18.7,23.3 9.2,9.2 L 61.9,104.6 51.6,91.3 Z M 90.9,78.5 88.8,80.1 86.9,78.2 84.3,75.6 95.8,95.9 66.4,79.2 56.1,89.5 l 31.1,40.3 9.2,-9.2 -18.7,-23.3 26.7,15.3 8,-8 -15.3,-26.7 23.3,18.8 9.3,-9.3 L 104.5,68 Z m 181,18.3 c -0.7,0 -1.5,0 -2.2,0 -0.1,0 -0.3,0.1 -0.3,0.2 0,0.5 0,0.9 0,1.4 h 10.8 v -0.6 c 0,-1 0,-1 -1,-1 h -1.9 V 74.7 h 2.8 v -1.6 h -10.7 v 1.6 c 0.9,0 1.7,0 2.5,0 0.3,0 0.4,0.1 0.4,0.4 0,7.1 0,14.2 0,21.3 0,0.3 -0.1,0.4 -0.4,0.4 z m -105.2,0 c -0.8,0 -1.7,0 -2.5,0 -0.1,0 -0.3,0.1 -0.3,0.2 0,0.5 0,0.9 0,1.4 h 8.9 c 0,-0.3 0,-0.5 0,-0.7 0,-0.9 0,-0.9 -0.9,-0.9 h -2.3 v -16 c 0,0 0,0 0.1,0 3,6 6.1,12 9.2,18.1 2.8,-6.2 5.6,-12.3 8.4,-18.4 0.1,0.1 0.1,0.1 0.1,0.2 0,5.3 0,10.6 0,15.8 0,0.3 -0.1,0.3 -0.4,0.3 -0.8,0 -1.7,0 -2.5,0 -0.1,0 -0.3,0.1 -0.3,0.2 0,0.5 0,0.9 0,1.4 h 11.4 c 0,-0.4 0,-0.8 0,-1.2 0,-0.3 -0.1,-0.4 -0.4,-0.4 -0.8,0 -1.6,0 -2.4,0 -0.3,0 -0.5,-0.1 -0.5,-0.4 0,-7.1 0,-14.2 0,-21.3 0,-0.1 0,-0.3 0,-0.4 h 0.5 c 0.8,0 1.6,0 2.4,0 0.1,0 0.3,-0.1 0.3,-0.2 0,-0.4 0,-0.9 0,-1.4 -0.2,0 -0.4,0 -0.5,0 -2.2,0 -4.4,0 -6.6,0 -0.4,0 -0.6,0.1 -0.7,0.5 -2.5,5.6 -5.1,11.3 -7.6,16.9 -0.1,0.1 -0.1,0.2 -0.2,0.4 -0.1,-0.2 -0.2,-0.4 -0.3,-0.5 -2.9,-5.7 -5.8,-11.3 -8.7,-17 -0.1,-0.3 -0.3,-0.4 -0.6,-0.4 -2,0 -4,0 -6,0 h -0.4 v 1.6 c 1,0 1.9,0 2.8,0 0.3,0 0.4,0.1 0.4,0.4 0,7.1 0,14.2 0,21.3 0,0.4 -0.1,0.5 -0.4,0.5 z M 329.4,53.1 c -1,0.3 -2.2,0.5 -3.6,0.5 -2.3,0 -4.5,-0.5 -6.6,-1.5 -2.2,-1 -4.4,-2.5 -6.7,-4.5 l -4.5,5 5.3,10.6 0.1,0.2 c 0.3,0.1 0.6,0.3 0.9,0.4 3.7,1.5 7.7,2.3 11.9,2.3 4,0 7.4,-0.7 10.4,-2.1 3,-1.4 5.3,-3.4 7,-5.9 1.6,-2.6 2.5,-5.5 2.5,-8.9 0,-2.9 -0.6,-5.3 -1.9,-7.4 -1.2,-2.1 -3,-3.8 -5.2,-5.2 -2.3,-1.4 -5.1,-2.8 -8.5,-4 -0.1,0 -0.2,-0.1 -0.3,-0.1 -0.1,-0.1 -0.2,-0.1 -0.3,-0.1 -0.2,-0.1 -0.4,-0.1 -0.5,-0.2 -0.2,-0.1 -0.4,-0.1 -0.5,-0.2 -2,-0.7 -3.5,-1.2 -4.4,-1.6 -1,-0.4 -1.7,-0.9 -2.2,-1.4 -0.5,-0.5 -0.8,-1.1 -0.8,-1.8 0,-0.8 0.2,-1.4 0.6,-2 0.4,-0.6 1,-1 1.7,-1.3 0.8,-0.3 1.7,-0.5 2.8,-0.5 2.1,0 4.2,0.4 6.3,1.3 2.1,0.9 3.8,1.9 5.1,3.1 l 7.4,-9.5 c -1.8,-1.6 -3.6,-2.9 -5.5,-4 -1.9,-1 -4,-1.9 -6.2,-2.4 -2.3,-0.6 -4.8,-0.9 -7.6,-0.9 -4.1,0 -7.6,0.7 -10.3,2.2 -2.7,1.4 -4.7,3.4 -6,5.7 -0.2,0.3 -0.3,0.6 -0.4,0.9 1.4,2.9 2.1,6.1 2.1,9.7 0,2.2 -0.3,4.2 -0.8,6.1 1.5,2 3.3,3.5 5.3,4.6 2.2,1.2 4.7,2.2 7.3,3 0.8,0.3 1.6,0.5 2.3,0.7 0.7,0.2 1.4,0.5 2,0.7 0.6,0.2 1.1,0.5 1.6,0.7 0.9,0.4 1.5,0.9 2,1.3 0.5,0.4 0.8,0.9 1,1.3 0.2,0.4 0.3,0.9 0.3,1.5 0,0.8 -0.2,1.5 -0.7,2.1 -0.8,0.8 -1.5,1.3 -2.4,1.6 z m -161.9,54.2 -4.2,10.8 h 2.3 l 0.7,-2 h 4.4 l 0.7,2 h 2.3 l -4.2,-10.8 z m -0.6,7 1.4,-3.9 0.1,-0.4 v 0 l 0.1,0.4 1.4,3.9 z M 152.4,96.8 c -0.7,0 -1.5,0 -2.2,0 -0.1,0 -0.3,0.1 -0.3,0.2 0,0.5 0,0.9 0,1.4 h 10.8 v -0.6 c 0,-1 0,-1 -1,-1 h -1.8 V 74.7 h 0.5 c 0.7,0 1.4,0 2.1,0 0.1,0 0.3,-0.1 0.3,-0.2 0,-0.5 0,-0.9 0,-1.4 H 150 v 1.6 c 0.9,0 1.7,0 2.5,0 0.3,0 0.4,0.1 0.4,0.4 0,7.1 0,14.2 0,21.3 -0.1,0.4 -0.2,0.4 -0.5,0.4 z M 277.7,65.1 V 48.2 h 5.5 c 0.5,0 1.1,0 1.6,0 l 7.9,17 H 308 L 297.8,44.7 c 1.9,-1.1 3.5,-2.6 4.8,-4.3 2.1,-2.7 3.1,-6.1 3.1,-10.2 0,-3.5 -0.8,-6.7 -2.4,-9.4 -1.6,-2.7 -3.8,-4.9 -6.6,-6.4 -2.8,-1.5 -6.1,-2.3 -9.7,-2.3 h -22.9 v 36.6 l 6.3,16.4 z m 0,-40.8 h 8.2 c 1.1,0 2.1,0.2 3,0.7 0.9,0.5 1.6,1.1 2.2,2 0.5,0.9 0.8,1.9 0.8,3.2 0,1.1 -0.3,2.2 -0.8,3.1 -0.5,0.9 -1.3,1.7 -2.2,2.2 -0.9,0.6 -2,0.8 -3.1,0.8 h -8.1 z M 225.3,65.2 228.1,57 H 247 l 2.8,8.2 h 13.9 L 243.5,12.5 h -11.8 l -16.7,43.4 1.2,9.3 z M 237,31 l 0.6,-2.4 h 0.1 l 0.6,2.4 5,14.8 H 232 Z m -12.4,65.8 c -0.7,0 -1.4,0 -2.2,0 -0.1,0 -0.3,0.1 -0.3,0.2 0,0.5 0,0.9 0,1.4 h 18.2 v -5.1 h -2 v 2.8 H 230 v -9.4 h 6.1 c 0,0.8 0,1.6 0,2.3 0,0.2 0.1,0.4 0.3,0.3 0.5,0 1,0 1.5,0 0.2,0 0.3,-0.1 0.3,-0.3 0,-2.3 0,-4.7 0,-7 0,-0.2 -0.1,-0.3 -0.3,-0.3 -0.5,0 -0.9,0 -1.4,0 -0.3,0 -0.4,0.1 -0.4,0.4 0,0.6 0,1.2 0,1.9 0,0.4 -0.1,0.4 -0.4,0.4 -1.8,0 -3.5,0 -5.3,0 -0.4,0 -0.4,-0.1 -0.4,-0.5 0,-2.7 0,-5.5 0,-8.2 0,-0.1 0,-0.3 0,-0.4 0.1,0 0.1,0 0.2,0 2.5,0 5,0 7.4,0 0.3,0 0.3,0.1 0.3,0.4 0,0.7 0,1.4 0,2.1 0,0.1 0.1,0.3 0.2,0.3 0.6,0 1.2,0 1.9,0 V 72 h -2.1 v 0.5 c 0,0.6 0,0.6 -0.6,0.6 -4.9,0 -9.8,0 -14.7,0 h -0.5 v 1.6 c 0.9,0 1.7,0 2.5,0 0.3,0 0.4,0.1 0.4,0.4 0,7.1 0,14.3 0,21.4 0,0.3 -0.1,0.3 -0.4,0.3 z m 27.8,-9.6 c 0.2,-0.2 1,0 1.1,0.2 0.4,0.6 0.7,1.1 1.1,1.7 1.7,2.6 3.3,5.1 5,7.7 0.7,1.1 1.6,1.6 2.9,1.6 1.7,0 3.5,0 5.2,0 0.1,0 0.2,0 0.2,0 v -1.6 c -0.4,0 -0.7,0 -1,0 -1.1,0.1 -1.8,-0.3 -2.3,-1.2 -0.1,-0.1 -0.2,-0.3 -0.3,-0.4 -1.8,-2.7 -3.5,-5.4 -5.3,-8.1 -0.1,-0.1 -0.1,-0.2 -0.2,-0.4 0.2,-0.1 0.4,-0.1 0.5,-0.2 1.6,-0.6 3,-1.5 3.9,-3 0.8,-1.4 1,-3 0.8,-4.6 -0.2,-2.6 -1.9,-4.7 -4.3,-5.4 -1,-0.3 -2,-0.4 -3,-0.4 -4,-0.1 -8,0 -12.1,0 -0.1,0 -0.2,0 -0.3,0 v 1.6 h 2.9 c 0,0.1 0,0.3 0,0.4 0,7.1 0,14.3 0,21.4 0,0.3 -0.1,0.4 -0.4,0.4 -0.7,0 -1.5,0 -2.2,0 -0.1,0 -0.3,0.1 -0.3,0.2 0,0.5 0,0.9 0,1.4 H 255 v -1.6 c -0.9,0 -1.7,0 -2.5,0 -0.2,0 -0.3,-0.1 -0.3,-0.3 0,-3 0,-6 0,-9.1 0.1,-0.1 0.1,-0.3 0.2,-0.3 z m -0.1,-11.9 c 1.1,0 2.3,-0.1 3.3,0 1.3,0.1 2.4,0.9 2.8,2.1 0.8,2.2 0.8,4.3 -0.7,6.3 -0.7,0.9 -1.6,1.4 -2.7,1.4 -0.9,0 -1.8,0 -2.8,0 V 75.3 Z M 79.6,40.5 77.7,42.4 73.2,46.8 95.3,34.2 78.8,63.7 89.1,74 129.3,42.9 120.1,33.7 96.8,52.4 110.9,24.5 104.1,17.7 77.3,32.9 96.1,9.6 86.8,0.3 67.7,25.1 77.9,38.4 Z m -14.8,29 v 0 0 l 10.7,5.9 -6.1,-10.5 v 0 0 l 5.9,-10.7 -10.5,6.1 v 0 0 l -10.7,-5.9 6.1,10.5 v 0 0 l -5.9,10.7 z m -26,-18.2 2.1,-1.6 1.9,1.9 2.5,2.5 L 33.8,33.9 63.2,50.6 73.5,40.3 42.4,0 33.1,9.3 51.9,32.6 25.2,17.2 l -8,8 L 32.5,51.9 9.2,33.2 0,42.4 25.1,61.8 Z M 184.2,113 c 0.4,-0.5 0.6,-1.2 0.6,-2 0,-0.7 -0.2,-1.3 -0.5,-1.9 -0.3,-0.5 -0.8,-1 -1.3,-1.3 -0.6,-0.3 -1.2,-0.5 -1.9,-0.5 h -4.5 v 10.8 h 2.2 v -3.6 h 1.7 c 0.2,0 0.3,0 0.5,0 l 1.7,3.6 h 2.5 l -2.1,-4.2 c 0.4,-0.2 0.8,-0.5 1.1,-0.9 z m -1.9,-1.2 c -0.1,0.2 -0.3,0.4 -0.6,0.6 -0.3,0.1 -0.5,0.2 -0.9,0.2 h -2.1 v -3.2 h 2.1 c 0.3,0 0.6,0.1 0.9,0.2 0.3,0.1 0.5,0.3 0.6,0.5 0.1,0.2 0.2,0.5 0.2,0.8 0,0.4 0,0.7 -0.2,0.9 z m -25.2,-4.5 -2.5,7.7 -2.5,-7.7 h -2.5 l -1.3,10.8 h 2.3 l 0.8,-7.3 2.3,7.3 h 1.9 l 2.3,-7.3 0.8,7.3 h 2.3 l -1.3,-10.8 z m 148.4,5.7 c 0.4,-0.5 0.6,-1.2 0.6,-2 0,-0.7 -0.2,-1.3 -0.5,-1.9 -0.3,-0.5 -0.8,-1 -1.3,-1.3 -0.6,-0.3 -1.2,-0.5 -1.9,-0.5 h -4.5 v 10.8 h 2.2 v -3.6 h 1.7 c 0.2,0 0.3,0 0.5,0 l 1.7,3.6 h 2.5 l -2.1,-4.2 c 0.4,-0.2 0.8,-0.5 1.1,-0.9 z m -1.9,-1.2 c -0.1,0.2 -0.3,0.4 -0.6,0.6 -0.3,0.2 -0.5,0.2 -0.9,0.2 H 300 v -3.2 h 2.1 c 0.3,0 0.6,0.1 0.9,0.2 0.3,0.1 0.5,0.3 0.6,0.5 0.1,0.2 0.2,0.5 0.2,0.8 0,0.4 0,0.7 -0.2,0.9 z m -21.9,-4 c -0.6,-0.3 -1.2,-0.5 -2,-0.5 h -4.3 v 10.8 h 2.2 v -3.6 h 2.1 c 0.8,0 1.4,-0.2 2,-0.5 0.6,-0.3 1,-0.7 1.3,-1.3 0.3,-0.6 0.5,-1.2 0.5,-1.9 0,-0.7 -0.2,-1.3 -0.5,-1.8 -0.3,-0.5 -0.8,-0.9 -1.3,-1.2 z m -0.7,4 c -0.1,0.3 -0.4,0.4 -0.6,0.6 -0.3,0.1 -0.6,0.2 -0.9,0.2 h -1.9 v -3.2 h 1.9 c 0.3,0 0.6,0.1 0.9,0.2 0.3,0.1 0.5,0.3 0.6,0.6 0.1,0.2 0.2,0.5 0.2,0.8 0,0.2 0,0.5 -0.2,0.8 z m 9.7,-7 -1.3,1.8 h 1.7 l 1.8,-1.8 z m 18.9,13.4 h 2.2 v -10.8 h -2.2 z m -20.8,-4.6 h 4.4 v -1.9 h -4.4 v -2.3 h 5.5 v -2 h -7.8 v 10.8 h 7.9 v -2 h -5.6 z m 21.8,-40.5 h -8.9 c 0,0.3 0,0.7 0,1 0,0.8 -0.1,0.6 0.7,0.7 0.8,0 1.7,0 2.5,0 v 0.5 c 0,4.5 0,9.1 0,13.6 0,0.7 0,1.4 -0.2,2.1 -0.5,2.6 -1.9,4.4 -4.5,5.1 -1.2,0.4 -2.5,0.4 -3.8,0.3 -2.4,-0.3 -4,-1.7 -4.4,-4.1 -0.2,-1 -0.3,-2.1 -0.3,-3.2 0,-4.6 0,-9.3 0,-13.9 v -0.5 h 2.9 v -1.6 h -10.7 v 1.6 h 2.9 v 6.9 c 0,2.8 0,5.7 0,8.5 0,4 2,6.9 5.8,8.1 3.2,1.1 6.5,1 9.7,-0.4 1.9,-0.8 3.4,-2 4.2,-3.9 0.6,-1.4 0.9,-2.8 0.9,-4.3 0,-4.8 0,-9.6 0,-14.5 v -0.4 h 3.2 z m 30,43 v -2.5 h 4.4 v -1.9 h -4.4 v -2.3 h 5.5 v -2 h -7.8 v 10.8 h 7.9 v -2 h -5.6 z m -10.4,-8.8 H 328 v 10.8 h 7.1 V 116 h -4.9 z M 322,97.7 c 0,-0.9 0,-0.9 -0.9,-0.9 h -2.3 v -16 c 0,0 0,0 0.1,0 3,6 6.1,12 9.2,18.1 2.8,-6.2 5.6,-12.3 8.4,-18.4 0.1,0.1 0.1,0.1 0.1,0.2 0,5.3 0,10.6 0,15.8 0,0.3 -0.1,0.3 -0.4,0.3 -0.8,0 -1.7,0 -2.5,0 -0.1,0 -0.3,0.1 -0.3,0.2 0,0.5 0,0.9 0,1.4 h 11.4 c 0,-0.4 0,-0.8 0,-1.2 0,-0.3 -0.1,-0.4 -0.4,-0.4 -0.8,0 -1.6,0 -2.4,0 -0.3,0 -0.5,-0.1 -0.5,-0.4 0,-7.1 0,-14.2 0,-21.3 0,-0.1 0,-0.3 0,-0.4 h 0.5 c 0.8,0 1.6,0 2.4,0 0.1,0 0.3,-0.1 0.3,-0.2 0,-0.4 0,-0.9 0,-1.4 -0.2,0 -0.4,0 -0.5,0 -2.2,0 -4.4,0 -6.6,0 -0.4,0 -0.6,0.1 -0.7,0.5 -2.5,5.6 -5.1,11.3 -7.6,16.9 -0.1,0.1 -0.1,0.2 -0.2,0.4 -0.1,-0.2 -0.2,-0.4 -0.3,-0.5 -2.9,-5.7 -5.8,-11.3 -8.7,-17 -0.1,-0.3 -0.3,-0.4 -0.6,-0.4 -2,0 -4,0 -6,0 h -0.4 v 1.6 c 1,0 1.9,0 2.8,0 0.3,0 0.4,0.1 0.4,0.4 0,7.1 0,14.2 0,21.3 0,0.3 -0.1,0.4 -0.4,0.4 -0.8,0 -1.7,0 -2.5,0 -0.1,0 -0.3,0.1 -0.3,0.2 0,0.5 0,0.9 0,1.4 h 8.9 z m -3.1,9.6 -4.2,10.8 h 2.3 l 0.7,-2 h 4.4 l 0.7,2 h 2.3 l -4.2,-10.8 z m -0.5,7 1.4,-3.9 0.1,-0.4 v 0 l 0.1,0.4 1.4,3.9 z m -124.3,-1.8 c -0.5,-0.3 -1.1,-0.5 -1.8,-0.8 0,0 0,0 -0.1,0 0,0 0,0 -0.1,0 0,0 -0.1,0 -0.1,0 0,0 -0.1,0 -0.1,0 -0.5,-0.1 -0.8,-0.3 -1.1,-0.4 -0.3,-0.1 -0.5,-0.2 -0.6,-0.4 -0.2,-0.1 -0.2,-0.3 -0.2,-0.6 0,-0.2 0.1,-0.4 0.2,-0.6 0.1,-0.2 0.3,-0.3 0.6,-0.4 0.2,-0.1 0.5,-0.1 0.8,-0.1 0.5,0 0.9,0.1 1.4,0.3 0.5,0.2 0.8,0.4 1.1,0.7 l 1.2,-1.5 c -0.3,-0.3 -0.7,-0.6 -1.1,-0.8 -0.4,-0.2 -0.8,-0.4 -1.3,-0.5 -0.5,-0.1 -0.9,-0.2 -1.5,-0.2 -0.8,0 -1.5,0.1 -2,0.4 -0.6,0.3 -1,0.7 -1.2,1.1 -0.3,0.5 -0.4,1 -0.4,1.6 0,0.7 0.2,1.2 0.5,1.6 0.3,0.4 0.7,0.8 1.2,1 0.5,0.2 1,0.4 1.6,0.6 0.2,0.1 0.3,0.1 0.5,0.2 0.2,0 0.3,0.1 0.4,0.1 0.1,0 0.3,0.1 0.4,0.1 0.2,0.1 0.4,0.2 0.5,0.3 0.1,0.1 0.2,0.2 0.3,0.4 0.1,0.1 0.1,0.3 0.1,0.5 0,0.3 -0.1,0.5 -0.2,0.7 -0.1,0.2 -0.3,0.3 -0.6,0.4 -0.3,0.1 -0.6,0.1 -0.9,0.1 -0.5,0 -1.1,-0.1 -1.6,-0.3 -0.5,-0.2 -1,-0.6 -1.4,-1 l -1.4,1.5 c 0.6,0.6 1.2,1.1 2,1.4 0.8,0.3 1.6,0.5 2.4,0.5 0.8,0 1.5,-0.1 2.1,-0.4 0.6,-0.3 1.1,-0.7 1.4,-1.2 0.3,-0.5 0.5,-1.1 0.5,-1.8 0,-0.6 -0.1,-1.1 -0.4,-1.5 -0.3,-0.4 -0.7,-0.7 -1.1,-1 z m 7.1,1.1 h 4.4 v -1.9 h -4.4 v -2.3 h 5.5 v -2 h -7.8 v 10.8 h 7.9 v -2 h -5.6 z m 9,4.6 h 2.2 v -10.8 h -2.2 z M 204.3,12.6 h -15.1 l -9.4,33.9 -9.4,-33.9 h -15.1 l -6.8,52.5 h 13.6 l 3.4,-30.9 8.4,30.9 h 11.7 l 8.4,-30.9 3.3,30.9 h 13.6 z m 11.8,62.2 c -1.4,-1.1 -2.9,-1.7 -4.7,-1.7 -4,-0.1 -8.1,0 -12.1,0 -0.1,0 -0.2,0 -0.3,0 v 0.7 c 0,0.9 0,0.9 0.8,0.9 h 2.1 c 0,0.2 0,0.3 0,0.4 0,7.1 0,14.2 0,21.3 0,0.3 -0.1,0.4 -0.4,0.4 -0.7,0 -1.5,0 -2.2,0 -0.1,0 -0.3,0.1 -0.3,0.2 0,0.4 0,0.9 0,1.4 h 11.2 c 0,-0.4 0,-0.8 0,-1.2 0,-0.3 -0.1,-0.4 -0.4,-0.3 -0.8,0 -1.6,0 -2.4,0 -0.4,0 -0.5,-0.1 -0.5,-0.5 0,-6.9 0,-13.8 0,-20.6 0,-0.1 0,-0.3 0,-0.5 0.9,0 1.7,0 2.5,0 1.8,0 3,0.9 3.5,2.6 0.6,1.8 0.6,3.7 0,5.5 -0.5,1.5 -1.5,2.4 -3.1,2.6 -0.5,0.1 -1,0 -1.6,0 0,0.5 0,1.1 0,1.6 0,0.1 0.2,0.2 0.3,0.2 0.7,0.1 1.5,0.2 2.2,0.2 2.9,-0.1 5.2,-1.5 6.7,-3.9 2,-3.1 1.3,-7.1 -1.3,-9.3 z m 52,32.5 -2.5,7.7 -2.5,-7.7 h -2.5 l -1.3,10.8 h 2.3 l 0.8,-7.3 2.3,7.3 h 1.9 l 2.3,-7.3 0.8,7.3 h 2.3 l -1.3,-10.8 z m -49.4,0 h -2.2 v 10.8 h 7.1 V 116 h -4.9 z m 20.7,6.3 h 4.4 v -1.9 h -4.4 v -2.3 h 5.5 v -2 h -7.8 v 10.8 h 7.9 v -2 h -5.6 z m 14.3,4.6 h 2.2 v -10.8 h -2.2 z m -24.6,-10.9 h -2.2 v 10.8 H 234 V 116 h -4.9 z" id="path1"/>
</svg>